<?xml version="1.0" standalone="no"?><!DOCTYPE svg PUBLIC "-//W3C//DTD SVG 1.1//EN" "http://www.w3.org/Graphics/SVG/1.1/DTD/svg11.dtd"><svg t="1663062808986" class="icon" viewBox="0 0 1024 1024" version="1.1" xmlns="http://www.w3.org/2000/svg" p-id="14063" xmlns:xlink="http://www.w3.org/1999/xlink" width="200" height="200"><path d="M319.488 315.392c-20.48 0-40.96 13.312-40.96 33.792 0 20.48 20.48 33.792 40.96 33.792s33.792-13.312 33.792-33.792c0-20.48-13.312-33.792-33.792-33.792zM600.064 514.048c-13.312 0-27.648 13.312-27.648 27.648 0 14.336 13.312 27.648 27.648 27.648 20.48 0 33.792-13.312 33.792-27.648 0-13.312-13.312-27.648-33.792-27.648z" p-id="14064" fill="#7ED976"></path><path d="M972.8 191.488C972.8 113.664 910.336 51.2 832.512 51.2H191.488C113.664 51.2 51.2 113.664 51.2 191.488v641.024C51.2 910.336 113.664 972.8 191.488 972.8h641.024C910.336 972.8 972.8 910.336 972.8 832.512V191.488zM407.552 665.6c-33.792 0-61.44-7.168-96.256-13.312L215.04 700.416l27.648-81.92C174.08 570.368 133.12 508.928 133.12 433.152c0-130.048 122.88-233.472 274.432-233.472 135.168 0 252.928 81.92 276.48 192.512-9.216-1.024-17.408-2.048-26.624-2.048-130.048 0-232.448 97.28-232.448 217.088 0 19.456 3.072 38.912 8.192 57.344-8.192 0-16.384 1.024-25.6 1.024z m404.48 95.232l20.48 68.608-74.752-40.96c-27.648 7.168-55.296 13.312-81.92 13.312-130.048 0-233.472-89.088-233.472-198.656s102.4-198.656 233.472-198.656c122.88 0 232.448 89.088 232.448 198.656 0 62.464-40.96 116.736-96.256 157.696z" p-id="14065" fill="#7ED976"></path><path d="M750.592 514.048c-13.312 0-27.648 13.312-27.648 27.648 0 14.336 13.312 27.648 27.648 27.648 20.48 0 33.792-13.312 33.792-27.648 0-13.312-13.312-27.648-33.792-27.648zM510.976 384c20.48 0 33.792-13.312 33.792-33.792 0-20.48-13.312-33.792-33.792-33.792-20.48 0-40.96 13.312-40.96 33.792 0 20.48 20.48 33.792 40.96 33.792z" p-id="14066" fill="#7ED976"></path></svg>